<svg xmlns="http://www.w3.org/2000/svg" viewBox="0 0 64 64" role="img" aria-label="ccllrun Studio"><polygon class="face f1" points="39.74,15.88 38.47,8.80 48.52,17.74 56.00,30.33 50.57,29.19"/><polygon class="face f2" points="50.57,29.19 56.00,30.33 50.57,45.35 41.79,53.48 41.79,43.50"/><polygon class="face f3" points="22.21,10.52 38.47,8.80 39.74,15.88 24.26,21.97 13.43,18.65"/><polygon class="face f4" points="15.48,46.26 25.53,39.03 41.79,43.50 41.79,53.48 25.53,55.20"/><polygon class="face f5" points="13.43,18.65 24.26,21.97 25.53,39.03 15.48,46.26 8.00,33.67"/><polygon class="face f6" points="24.26,21.97 39.74,15.88 50.57,29.19 41.79,43.50 25.53,39.03"/><path class="edge" d="M39.74 15.88L38.47 8.80M38.47 8.80L48.52 17.74M48.52 17.74L56.00 30.33M56.00 30.33L50.57 29.19M50.57 29.19L39.74 15.88M56.00 30.33L50.57 45.35M50.57 45.35L41.79 53.48M41.79 53.48L41.79 43.50M41.79 43.50L50.57 29.19M22.21 10.52L38.47 8.80M39.74 15.88L24.26 21.97M24.26 21.97L13.43 18.65M13.43 18.65L22.21 10.52M15.48 46.26L25.53 39.03M25.53 39.03L41.79 43.50M41.79 53.48L25.53 55.20M25.53 55.20L15.48 46.26M24.26 21.97L25.53 39.03M15.48 46.26L8.00 33.67M8.00 33.67L13.43 18.65"/></svg>
